<svg width="25" height="24" viewBox="0 0 25 24" fill="none" xmlns="http://www.w3.org/2000/svg">
<path d="M12.6738 0C19.3015 0 24.6738 5.37235 24.6738 12C24.6738 18.6277 19.3015 24 12.6738 24C6.04618 24 0.673828 18.6277 0.673828 12C0.673828 5.37235 6.04618 0 12.6738 0ZM16.8133 16.8913C17.034 16.2141 18.0681 9.46487 18.1959 8.13496C18.2345 7.73217 18.1072 7.46452 17.8578 7.34504C17.5563 7.2 17.1097 7.27252 16.5916 7.4593C15.881 7.71548 6.79644 11.5727 6.27157 11.796C5.77383 12.0073 5.30322 12.2379 5.30322 12.5718C5.30322 12.8066 5.44252 12.9386 5.82652 13.0758C6.22618 13.2183 7.23261 13.5235 7.82687 13.6873C8.39922 13.8454 9.05087 13.7082 9.41609 13.4812C9.80322 13.2407 14.2709 10.2511 14.5917 9.98922C14.9121 9.7273 15.1677 10.0628 14.9058 10.3252C14.6439 10.5871 11.5771 13.5637 11.1728 13.9758C10.6818 14.4762 11.0304 14.9948 11.3596 15.2024C11.7357 15.4393 14.441 17.2539 14.8484 17.545C15.2559 17.8362 15.6691 17.9682 16.0474 17.9682C16.4257 17.9682 16.625 17.4699 16.8133 16.8913Z" fill="#B3B3B3"/>
</svg>
