<svg width="33" height="24" viewBox="0 0 33 24" fill="none" xmlns="http://www.w3.org/2000/svg">
<path d="M32.0977 4.125C31.7988 2.47559 30.375 1.27441 28.7227 0.899414C26.25 0.375 21.6738 0 16.7227 0C11.7744 0 7.125 0.375 4.64941 0.899414C3 1.27441 1.57324 2.39941 1.27441 4.125C0.972657 6 0.673828 8.625 0.673828 12C0.673828 15.375 0.972657 18 1.34766 19.875C1.64941 21.5244 3.07324 22.7256 4.72266 23.1006C7.34766 23.625 11.8477 24 16.7988 24C21.75 24 26.25 23.625 28.875 23.1006C30.5244 22.7256 31.9482 21.6006 32.25 19.875C32.5488 18 32.9238 15.2988 33 12C32.8477 8.625 32.4727 6 32.0977 4.125ZM12.6738 17.25V6.75L21.8232 12L12.6738 17.25Z" fill="#B3B3B3"/>
</svg>
