<svg width="166" height="128" viewBox="0 0 166 128" fill="none" xmlns="http://www.w3.org/2000/svg">
<rect x="25.2536" y="25.2535" width="77.4932" height="77.4932" rx="16.22" stroke="#B3B3B3" stroke-width="3"/>
<mask id="mask0_130_25523" style="mask-type:alpha" maskUnits="userSpaceOnUse" x="25" y="25" width="77" height="77">
<rect x="26.8744" y="26.0905" width="74.4433" height="74.4433" rx="15.32" transform="rotate(0.738201 26.8744 26.0905)" fill="#5454D4" stroke="white" stroke-width="1.2"/>
</mask>
<g mask="url(#mask0_130_25523)">
<path d="M10.1485 58.1635C20.166 59.2277 41.4888 57.6346 46.6396 42.7485C53.0781 24.1409 77.8555 16.8517 90.0458 15.621" stroke="#B3B3B3" stroke-width="1.2"/>
<path d="M12.4985 63.1249C22.5632 63.5547 43.7428 60.619 47.9439 45.4375C53.1952 26.4606 77.4631 17.6221 89.5514 15.6246" stroke="#B3B3B3" stroke-width="1.2"/>
<path d="M13.6496 68.6738C23.7143 69.1037 44.894 66.1679 49.095 50.9864C54.3463 32.0096 78.6142 23.1711 90.7026 21.1735" stroke="#B3B3B3" stroke-width="1.2"/>
<path d="M14.7738 74.3425C24.8385 74.7723 46.0182 71.8366 50.2192 56.6551C55.4705 37.6782 79.7384 28.8397 91.8268 26.8422" stroke="#B3B3B3" stroke-width="1.2"/>
<path d="M14.7738 74.3425C24.8807 74.7513 46.1573 71.7672 50.4087 56.5605C55.723 37.5522 80.1137 28.6524 92.2581 26.6269" stroke="#B3B3B3" stroke-width="1.2"/>
<path d="M24.4479 91.2274C35.4828 91.1731 58.8928 87.1245 64.2537 71.3642C70.9549 51.6638 98.0474 41.4158 111.425 38.7751" stroke="#B3B3B3" stroke-width="1.2"/>
<path d="M25.6768 100.154C36.7117 100.099 60.1217 96.0507 65.4826 80.2904C72.1838 60.59 99.2763 50.3421 112.653 47.7014" stroke="#B3B3B3" stroke-width="1.2"/>
<path d="M28.4663 105.754C39.5012 105.7 62.9112 101.651 68.2722 85.8906C74.9733 66.1902 102.066 55.9422 115.443 53.3015" stroke="#B3B3B3" stroke-width="1.2"/>
<path d="M33.5924 110.367C44.6273 110.313 68.0373 106.264 73.3982 90.5039C80.0994 70.8035 107.192 60.5555 120.569 57.9149" stroke="#B3B3B3" stroke-width="1.2"/>
<path d="M41.7317 117.097C52.7665 117.043 76.1766 112.994 81.5375 97.2338C88.2387 77.5335 115.331 67.2855 128.708 64.6448" stroke="#B3B3B3" stroke-width="1.2"/>
<path d="M26.3049 84.0882C36.3696 84.518 57.5493 81.5823 61.7503 66.4008C67.0016 47.4239 91.2695 38.5854 103.358 36.5879" stroke="#B3B3B3" stroke-width="1.2"/>
<path d="M16.2005 80.7302C27.2906 80.6484 50.8276 76.5364 56.2545 60.7431C63.0382 41.0016 90.2915 30.6734 103.742 27.9961" stroke="#B3B3B3" stroke-width="1.2"/>
</g>
<g filter="url(#filter0_bd_130_25523)">
<rect x="41.5119" y="50.0107" width="118.166" height="46.2917" rx="7" fill="#D9D9D9" fill-opacity="0.01" shape-rendering="crispEdges"/>
</g>
<path d="M155.333 8.93021C155.977 8.48688 156.735 8.05347 157.547 7.99205C157.58 8.00649 157.629 8.00378 157.678 8.00107C157.754 8.20873 157.821 8.53106 157.832 8.72608C157.866 9.93053 156.618 10.9292 155.746 11.6786C152.679 13.9846 149.506 16.1336 146.314 18.251C138.901 23.6026 131.682 29.2206 124.743 35.1979C121.776 37.5473 118.722 39.7874 115.895 42.3084C110.801 46.8627 106.105 51.835 101.512 56.8832C99.2798 59.2569 97.4073 61.9367 95.1574 64.2789C94.6003 64.8152 94.1859 65.5718 93.3995 65.7949C93.4943 64.567 94.5055 63.6956 94.9488 62.5788C102.837 51.6906 111.698 41.3027 122.548 33.2495C129.858 27.2027 137.22 21.2181 145.003 15.7807C148.536 13.6444 152.031 11.4123 155.333 8.93021Z" stroke="#B3B3B3"/>
<path d="M121.957 86.6699C121.941 86.2142 121.892 85.7747 121.827 85.3189C119.858 85.4329 118.572 85.205 116.781 84.1307C114.942 82.7309 114.014 80.7939 114.144 78.7268C113.233 78.9221 112.273 79.2802 111.345 78.9384C112.712 76.1876 115.56 74.0553 117.009 71.1905C119.646 65.8517 121.143 60.4152 124.171 55.2879C124.903 53.9369 126.14 52.8464 126.499 51.3163C127.003 48.5818 127.996 45.8636 129.705 43.6336C130.031 43.0476 131.235 42.7709 131.333 43.6662C131.561 45.5706 131.105 47.5238 130.356 49.2817C129.331 51.6256 130.535 54.0834 130.942 56.411C131.675 61.3592 129.591 66.3237 126.58 70.1488C124.09 73.4205 120.737 75.9271 117.025 77.6362C117.693 79.4267 118.393 80.7614 121.176 80.7939C121.583 80.7777 122.234 80.6963 122.511 80.2568C123.064 79.3778 123.65 77.7827 124.106 77.3269C124.741 76.2364 125.685 75.3737 126.808 74.7877C126.661 75.5365 125.831 78.7593 125.62 79.4755C128.029 78.5803 130.486 75.0156 132.033 73.0298C132.309 72.5415 132.098 72.1834 131.74 71.9718C131.072 71.5974 130.714 69.7256 130.91 68.9443C131.268 67.6259 131.235 67.8212 132.033 66.7469C132.895 65.6075 135.304 65.3959 135.793 66.7795C136.216 68.0491 136.216 69.4977 135.874 70.7836C134.539 76.334 130.405 80.7777 125.636 83.6912C126.303 86.6699 128.517 86.0188 129.835 85.1562C130.828 84.4888 131.772 83.4634 132.651 82.3728C135.581 78.6942 137.437 74.2831 140.204 70.4743C140.578 69.9535 140.985 69.4326 141.408 68.9443C143.72 66.2423 147.203 64.4681 149.27 66.3725C149.4 66.4865 149.514 66.6167 149.612 66.7469C150.865 68.9606 150.572 71.809 149.124 73.8599C148.7 74.4622 147.756 74.2831 147.577 73.567C147.333 72.6229 146.926 70.9301 145.803 71.0766C143.443 71.3858 141.538 73.8925 140.188 75.9434C140.09 76.0899 140.008 76.2364 139.911 76.3666C137.111 80.8102 134.963 85.9863 130.91 89.144C127.345 91.9274 122.218 92.3506 121.957 86.6699Z" stroke="#B3B3B3"/>
<path d="M125.05 67.2677C123.52 68.8954 121.664 70.2139 119.646 71.1905C119.694 70.0185 120.443 69.0419 120.785 67.9351C122.592 64.0449 123.78 59.7803 126.319 56.2645C126.498 56.59 126.628 56.9319 126.726 57.2737C127.703 60.8058 127.459 64.696 125.05 67.2677Z" stroke="#B3B3B3"/>
<path d="M111.523 75.9433C111.491 75.3573 109.472 71.695 108.235 71.0439C104.134 69.107 94.2047 73.5343 90.4935 75.3899C81.769 79.687 54.554 90.3973 50.4359 76.5944C49.622 74.69 49.2639 72.46 49.2639 70.4091C49.2639 68.7001 50.0452 63.524 51.4288 62.5799C52.2589 65.4447 50.208 71.0439 54.1959 74.6412C57.9721 77.8152 63.311 77.5222 67.9174 77.0013C81.5086 74.983 95.458 65.4935 104.98 64.875C114.714 64.2239 113.281 76.2037 111.523 75.9433Z" stroke="#B3B3B3"/>
<defs>
<filter id="filter0_bd_130_25523" x="27.5119" y="40.0107" width="142.166" height="70.2917" filterUnits="userSpaceOnUse" color-interpolation-filters="sRGB">
<feFlood flood-opacity="0" result="BackgroundImageFix"/>
<feGaussianBlur in="BackgroundImageFix" stdDeviation="5"/>
<feComposite in2="SourceAlpha" operator="in" result="effect1_backgroundBlur_130_25523"/>
<feColorMatrix in="SourceAlpha" type="matrix" values="0 0 0 0 0 0 0 0 0 0 0 0 0 0 0 0 0 0 127 0" result="hardAlpha"/>
<feOffset dx="-4" dy="4"/>
<feGaussianBlur stdDeviation="5"/>
<feComposite in2="hardAlpha" operator="out"/>
<feColorMatrix type="matrix" values="0 0 0 0 0 0 0 0 0 0 0 0 0 0 0 0 0 0 0.25 0"/>
<feBlend mode="normal" in2="effect1_backgroundBlur_130_25523" result="effect2_dropShadow_130_25523"/>
<feBlend mode="normal" in="SourceGraphic" in2="effect2_dropShadow_130_25523" result="shape"/>
</filter>
</defs>
</svg>
