<svg width="34" height="34" viewBox="0 0 34 34" fill="none" xmlns="http://www.w3.org/2000/svg">
<path d="M16.5923 5.53073C17.3559 5.53073 17.975 6.14978 17.975 6.91342V15.2096H26.2711C27.0347 15.2096 27.6538 15.8286 27.6538 16.5922C27.6538 17.3559 27.0347 17.9749 26.2711 17.9749H17.975V26.2711C17.975 27.0347 17.3559 27.6537 16.5923 27.6537C15.8286 27.6537 15.2096 27.0347 15.2096 26.2711V17.9749H6.91345C6.14981 17.9749 5.53076 17.3559 5.53076 16.5922C5.53076 15.8286 6.14981 15.2096 6.91345 15.2096H15.2096V6.91342C15.2096 6.14978 15.8286 5.53073 16.5923 5.53073Z" fill="#E7E7E7"/>
</svg>
